<mxfile host="app.diagrams.net" modified="2020-12-24T08:14:02.604Z" agent="5.0 (Macintosh; Intel Mac OS X 10_15_6) AppleWebKit/537.36 (KHTML, like Gecko) Chrome/87.0.4280.88 Safari/537.36" etag="jVGP1Ox9uMOhxh2fZPxo" version="13.10.2" type="github">
  <diagram id="C5RBs43oDa-KdzZeNtuy" name="Page-1">
    <mxGraphModel dx="740" dy="424" grid="1" gridSize="10" guides="1" tooltips="1" connect="1" arrows="1" fold="1" page="1" pageScale="1" pageWidth="827" pageHeight="1169" math="0" shadow="0">
      <root>
        <mxCell id="WIyWlLk6GJQsqaUBKTNV-0" />
        <mxCell id="WIyWlLk6GJQsqaUBKTNV-1" parent="WIyWlLk6GJQsqaUBKTNV-0" />
        <mxCell id="hQZkc8gAuh2M-leD8xaD-19" style="edgeStyle=orthogonalEdgeStyle;rounded=0;orthogonalLoop=1;jettySize=auto;html=1;exitX=1;exitY=0.5;exitDx=0;exitDy=0;entryX=0;entryY=0.5;entryDx=0;entryDy=0;endArrow=block;endFill=0;" edge="1" parent="WIyWlLk6GJQsqaUBKTNV-1" source="hQZkc8gAuh2M-leD8xaD-0" target="hQZkc8gAuh2M-leD8xaD-16">
          <mxGeometry relative="1" as="geometry" />
        </mxCell>
        <mxCell id="hQZkc8gAuh2M-leD8xaD-0" value="点播插件/插件混跑" style="rounded=1;whiteSpace=wrap;html=1;" vertex="1" parent="WIyWlLk6GJQsqaUBKTNV-1">
          <mxGeometry x="20" y="120" width="90" height="30" as="geometry" />
        </mxCell>
        <mxCell id="hQZkc8gAuh2M-leD8xaD-15" style="edgeStyle=orthogonalEdgeStyle;rounded=0;orthogonalLoop=1;jettySize=auto;html=1;exitX=1;exitY=0.5;exitDx=0;exitDy=0;entryX=0;entryY=0.5;entryDx=0;entryDy=0;endArrow=block;endFill=0;" edge="1" parent="WIyWlLk6GJQsqaUBKTNV-1" source="hQZkc8gAuh2M-leD8xaD-1" target="hQZkc8gAuh2M-leD8xaD-10">
          <mxGeometry relative="1" as="geometry" />
        </mxCell>
        <mxCell id="hQZkc8gAuh2M-leD8xaD-1" value="直播" style="rounded=1;whiteSpace=wrap;html=1;" vertex="1" parent="WIyWlLk6GJQsqaUBKTNV-1">
          <mxGeometry x="20" y="80" width="90" height="20" as="geometry" />
        </mxCell>
        <mxCell id="hQZkc8gAuh2M-leD8xaD-18" style="edgeStyle=orthogonalEdgeStyle;rounded=0;orthogonalLoop=1;jettySize=auto;html=1;exitX=1;exitY=0.5;exitDx=0;exitDy=0;entryX=0;entryY=0.5;entryDx=0;entryDy=0;endArrow=block;endFill=0;" edge="1" parent="WIyWlLk6GJQsqaUBKTNV-1" source="hQZkc8gAuh2M-leD8xaD-2" target="hQZkc8gAuh2M-leD8xaD-17">
          <mxGeometry relative="1" as="geometry" />
        </mxCell>
        <mxCell id="hQZkc8gAuh2M-leD8xaD-2" value="XCDN" style="rounded=1;whiteSpace=wrap;html=1;" vertex="1" parent="WIyWlLk6GJQsqaUBKTNV-1">
          <mxGeometry x="20" y="170" width="90" height="20" as="geometry" />
        </mxCell>
        <mxCell id="hQZkc8gAuh2M-leD8xaD-22" style="edgeStyle=orthogonalEdgeStyle;rounded=0;orthogonalLoop=1;jettySize=auto;html=1;exitX=1;exitY=0.5;exitDx=0;exitDy=0;entryX=0;entryY=0.5;entryDx=0;entryDy=0;endArrow=block;endFill=0;" edge="1" parent="WIyWlLk6GJQsqaUBKTNV-1" source="hQZkc8gAuh2M-leD8xaD-3" target="hQZkc8gAuh2M-leD8xaD-21">
          <mxGeometry relative="1" as="geometry" />
        </mxCell>
        <mxCell id="hQZkc8gAuh2M-leD8xaD-3" value="芒果PCDN" style="rounded=1;whiteSpace=wrap;html=1;" vertex="1" parent="WIyWlLk6GJQsqaUBKTNV-1">
          <mxGeometry x="20" y="210" width="90" height="20" as="geometry" />
        </mxCell>
        <mxCell id="hQZkc8gAuh2M-leD8xaD-36" style="edgeStyle=orthogonalEdgeStyle;rounded=0;orthogonalLoop=1;jettySize=auto;html=1;exitX=1;exitY=0.5;exitDx=0;exitDy=0;entryX=0;entryY=0.875;entryDx=0;entryDy=0;entryPerimeter=0;endArrow=block;endFill=0;" edge="1" parent="WIyWlLk6GJQsqaUBKTNV-1" source="hQZkc8gAuh2M-leD8xaD-4" target="hQZkc8gAuh2M-leD8xaD-24">
          <mxGeometry relative="1" as="geometry" />
        </mxCell>
        <mxCell id="hQZkc8gAuh2M-leD8xaD-4" value="阿里容器" style="rounded=1;whiteSpace=wrap;html=1;" vertex="1" parent="WIyWlLk6GJQsqaUBKTNV-1">
          <mxGeometry x="20" y="410" width="90" height="20" as="geometry" />
        </mxCell>
        <mxCell id="hQZkc8gAuh2M-leD8xaD-23" style="edgeStyle=orthogonalEdgeStyle;rounded=0;orthogonalLoop=1;jettySize=auto;html=1;exitX=1;exitY=0.5;exitDx=0;exitDy=0;entryX=0;entryY=0.5;entryDx=0;entryDy=0;endArrow=block;endFill=0;" edge="1" parent="WIyWlLk6GJQsqaUBKTNV-1" source="hQZkc8gAuh2M-leD8xaD-5" target="hQZkc8gAuh2M-leD8xaD-21">
          <mxGeometry relative="1" as="geometry" />
        </mxCell>
        <mxCell id="hQZkc8gAuh2M-leD8xaD-5" value="腾讯" style="rounded=1;whiteSpace=wrap;html=1;" vertex="1" parent="WIyWlLk6GJQsqaUBKTNV-1">
          <mxGeometry x="20" y="250" width="90" height="20" as="geometry" />
        </mxCell>
        <mxCell id="hQZkc8gAuh2M-leD8xaD-35" style="edgeStyle=orthogonalEdgeStyle;rounded=0;orthogonalLoop=1;jettySize=auto;html=1;exitX=1;exitY=0.5;exitDx=0;exitDy=0;entryX=0;entryY=0.875;entryDx=0;entryDy=0;entryPerimeter=0;endArrow=block;endFill=0;" edge="1" parent="WIyWlLk6GJQsqaUBKTNV-1" source="hQZkc8gAuh2M-leD8xaD-6" target="hQZkc8gAuh2M-leD8xaD-24">
          <mxGeometry relative="1" as="geometry" />
        </mxCell>
        <mxCell id="hQZkc8gAuh2M-leD8xaD-6" value="爱奇艺" style="rounded=1;whiteSpace=wrap;html=1;" vertex="1" parent="WIyWlLk6GJQsqaUBKTNV-1">
          <mxGeometry x="20" y="370" width="90" height="20" as="geometry" />
        </mxCell>
        <mxCell id="hQZkc8gAuh2M-leD8xaD-33" style="edgeStyle=orthogonalEdgeStyle;rounded=0;orthogonalLoop=1;jettySize=auto;html=1;exitX=1;exitY=0.5;exitDx=0;exitDy=0;entryX=0;entryY=0.875;entryDx=0;entryDy=0;entryPerimeter=0;endArrow=block;endFill=0;" edge="1" parent="WIyWlLk6GJQsqaUBKTNV-1" source="hQZkc8gAuh2M-leD8xaD-7" target="hQZkc8gAuh2M-leD8xaD-24">
          <mxGeometry relative="1" as="geometry" />
        </mxCell>
        <mxCell id="hQZkc8gAuh2M-leD8xaD-7" value="斗鱼" style="rounded=1;whiteSpace=wrap;html=1;" vertex="1" parent="WIyWlLk6GJQsqaUBKTNV-1">
          <mxGeometry x="20" y="330" width="90" height="20" as="geometry" />
        </mxCell>
        <mxCell id="hQZkc8gAuh2M-leD8xaD-32" style="edgeStyle=orthogonalEdgeStyle;rounded=0;orthogonalLoop=1;jettySize=auto;html=1;exitX=1;exitY=0.5;exitDx=0;exitDy=0;endArrow=block;endFill=0;" edge="1" parent="WIyWlLk6GJQsqaUBKTNV-1" source="hQZkc8gAuh2M-leD8xaD-8" target="hQZkc8gAuh2M-leD8xaD-31">
          <mxGeometry relative="1" as="geometry" />
        </mxCell>
        <mxCell id="hQZkc8gAuh2M-leD8xaD-8" value="快手" style="rounded=1;whiteSpace=wrap;html=1;" vertex="1" parent="WIyWlLk6GJQsqaUBKTNV-1">
          <mxGeometry x="20" y="295" width="90" height="20" as="geometry" />
        </mxCell>
        <mxCell id="hQZkc8gAuh2M-leD8xaD-26" style="edgeStyle=orthogonalEdgeStyle;rounded=0;orthogonalLoop=1;jettySize=auto;html=1;exitX=1;exitY=0.5;exitDx=0;exitDy=0;entryX=0;entryY=0.5;entryDx=0;entryDy=0;endArrow=block;endFill=0;" edge="1" parent="WIyWlLk6GJQsqaUBKTNV-1" source="hQZkc8gAuh2M-leD8xaD-10" target="hQZkc8gAuh2M-leD8xaD-24">
          <mxGeometry relative="1" as="geometry" />
        </mxCell>
        <mxCell id="hQZkc8gAuh2M-leD8xaD-10" value="判断当前时间是否是处于18:00-23:00" style="rounded=1;whiteSpace=wrap;html=1;" vertex="1" parent="WIyWlLk6GJQsqaUBKTNV-1">
          <mxGeometry x="180" y="75" width="110" height="30" as="geometry" />
        </mxCell>
        <mxCell id="hQZkc8gAuh2M-leD8xaD-27" style="edgeStyle=orthogonalEdgeStyle;rounded=0;orthogonalLoop=1;jettySize=auto;html=1;exitX=1;exitY=0.5;exitDx=0;exitDy=0;entryX=0;entryY=0.5;entryDx=0;entryDy=0;endArrow=block;endFill=0;" edge="1" parent="WIyWlLk6GJQsqaUBKTNV-1" source="hQZkc8gAuh2M-leD8xaD-16" target="hQZkc8gAuh2M-leD8xaD-24">
          <mxGeometry relative="1" as="geometry" />
        </mxCell>
        <mxCell id="hQZkc8gAuh2M-leD8xaD-16" value="判断当前时间是否为MS机器" style="rounded=1;whiteSpace=wrap;html=1;" vertex="1" parent="WIyWlLk6GJQsqaUBKTNV-1">
          <mxGeometry x="180" y="120" width="110" height="30" as="geometry" />
        </mxCell>
        <mxCell id="hQZkc8gAuh2M-leD8xaD-28" style="edgeStyle=orthogonalEdgeStyle;rounded=0;orthogonalLoop=1;jettySize=auto;html=1;exitX=1;exitY=0.5;exitDx=0;exitDy=0;endArrow=block;endFill=0;" edge="1" parent="WIyWlLk6GJQsqaUBKTNV-1" source="hQZkc8gAuh2M-leD8xaD-17" target="hQZkc8gAuh2M-leD8xaD-24">
          <mxGeometry relative="1" as="geometry" />
        </mxCell>
        <mxCell id="hQZkc8gAuh2M-leD8xaD-17" value="用户自行输入记录下线原因" style="rounded=1;whiteSpace=wrap;html=1;" vertex="1" parent="WIyWlLk6GJQsqaUBKTNV-1">
          <mxGeometry x="180" y="165" width="110" height="30" as="geometry" />
        </mxCell>
        <mxCell id="hQZkc8gAuh2M-leD8xaD-29" style="edgeStyle=orthogonalEdgeStyle;rounded=0;orthogonalLoop=1;jettySize=auto;html=1;exitX=1;exitY=0.5;exitDx=0;exitDy=0;endArrow=block;endFill=0;" edge="1" parent="WIyWlLk6GJQsqaUBKTNV-1" source="hQZkc8gAuh2M-leD8xaD-21">
          <mxGeometry relative="1" as="geometry">
            <mxPoint x="370" y="250" as="targetPoint" />
          </mxGeometry>
        </mxCell>
        <mxCell id="hQZkc8gAuh2M-leD8xaD-21" value="通知客户" style="rounded=1;whiteSpace=wrap;html=1;" vertex="1" parent="WIyWlLk6GJQsqaUBKTNV-1">
          <mxGeometry x="180" y="220" width="110" height="40" as="geometry" />
        </mxCell>
        <mxCell id="hQZkc8gAuh2M-leD8xaD-30" style="edgeStyle=orthogonalEdgeStyle;rounded=0;orthogonalLoop=1;jettySize=auto;html=1;exitX=1;exitY=0.5;exitDx=0;exitDy=0;entryX=0;entryY=0.5;entryDx=0;entryDy=0;endArrow=block;endFill=0;" edge="1" parent="WIyWlLk6GJQsqaUBKTNV-1" source="hQZkc8gAuh2M-leD8xaD-24" target="hQZkc8gAuh2M-leD8xaD-25">
          <mxGeometry relative="1" as="geometry" />
        </mxCell>
        <mxCell id="hQZkc8gAuh2M-leD8xaD-24" value="判断是否需要通知业务运维" style="rounded=1;whiteSpace=wrap;html=1;" vertex="1" parent="WIyWlLk6GJQsqaUBKTNV-1">
          <mxGeometry x="370" y="130" width="70" height="240" as="geometry" />
        </mxCell>
        <mxCell id="hQZkc8gAuh2M-leD8xaD-40" style="edgeStyle=orthogonalEdgeStyle;rounded=0;orthogonalLoop=1;jettySize=auto;html=1;exitX=1;exitY=0.5;exitDx=0;exitDy=0;entryX=0;entryY=0.5;entryDx=0;entryDy=0;endArrow=block;endFill=0;" edge="1" parent="WIyWlLk6GJQsqaUBKTNV-1" source="hQZkc8gAuh2M-leD8xaD-25" target="hQZkc8gAuh2M-leD8xaD-39">
          <mxGeometry relative="1" as="geometry" />
        </mxCell>
        <mxCell id="hQZkc8gAuh2M-leD8xaD-25" value="判断是否需要执行自动下线" style="rounded=1;whiteSpace=wrap;html=1;" vertex="1" parent="WIyWlLk6GJQsqaUBKTNV-1">
          <mxGeometry x="500" y="130" width="70" height="240" as="geometry" />
        </mxCell>
        <mxCell id="hQZkc8gAuh2M-leD8xaD-37" style="edgeStyle=orthogonalEdgeStyle;rounded=0;orthogonalLoop=1;jettySize=auto;html=1;exitX=1;exitY=0.5;exitDx=0;exitDy=0;entryX=0;entryY=0.75;entryDx=0;entryDy=0;endArrow=block;endFill=0;" edge="1" parent="WIyWlLk6GJQsqaUBKTNV-1" source="hQZkc8gAuh2M-leD8xaD-31" target="hQZkc8gAuh2M-leD8xaD-24">
          <mxGeometry relative="1" as="geometry" />
        </mxCell>
        <mxCell id="hQZkc8gAuh2M-leD8xaD-31" value="判断下线时间是否超过7天" style="rounded=1;whiteSpace=wrap;html=1;" vertex="1" parent="WIyWlLk6GJQsqaUBKTNV-1">
          <mxGeometry x="180" y="290" width="110" height="30" as="geometry" />
        </mxCell>
        <mxCell id="hQZkc8gAuh2M-leD8xaD-38" value="2.需要操作的逻辑关系图" style="text;html=1;strokeColor=none;fillColor=none;align=center;verticalAlign=middle;whiteSpace=wrap;rounded=0;" vertex="1" parent="WIyWlLk6GJQsqaUBKTNV-1">
          <mxGeometry x="300" y="40" width="140" height="20" as="geometry" />
        </mxCell>
        <mxCell id="hQZkc8gAuh2M-leD8xaD-39" value="结束流程" style="rounded=1;whiteSpace=wrap;html=1;" vertex="1" parent="WIyWlLk6GJQsqaUBKTNV-1">
          <mxGeometry x="610" y="130" width="70" height="240" as="geometry" />
        </mxCell>
        <mxCell id="hQZkc8gAuh2M-leD8xaD-41" value="" style="endArrow=none;dashed=1;html=1;dashPattern=1 3;strokeWidth=2;" edge="1" parent="WIyWlLk6GJQsqaUBKTNV-1">
          <mxGeometry width="50" height="50" relative="1" as="geometry">
            <mxPoint x="140" y="40" as="sourcePoint" />
            <mxPoint x="140" y="40" as="targetPoint" />
            <Array as="points">
              <mxPoint x="140" y="450" />
              <mxPoint x="600" y="450" />
              <mxPoint x="600" y="40" />
            </Array>
          </mxGeometry>
        </mxCell>
      </root>
    </mxGraphModel>
  </diagram>
</mxfile>
